<svg viewBox="0 0 220 120" xmlns="http://www.w3.org/2000/svg">
  <!-- أخرى: هاتشباك صغيرةٌ — أقصرُ من البقيّةِ وعجلاتٌ أصغرُ ومؤخّرةٌ حادّةُ الميل -->
  <ellipse cx="110" cy="112" rx="92" ry="7" fill="#0f172a" opacity=".10"/>
  <g stroke="#0f172a" stroke-width="4" stroke-linejoin="round" stroke-linecap="round">
    <path d="M34 91 L34 70 Q34 64 38 59 L52 41 Q55 37 61 37 L119 36 Q125 36 129 40 L146 55 L172 59 Q181 61 182 70 L182 91 Z" fill="#f59e0b"/>
    <rect x="36" y="79" width="144" height="10" fill="#d97706" stroke="none"/>
    <path d="M45 56 L57 43 L76 43 L76 56 Z" fill="#cfe3f5"/>
    <path d="M82 43 L118 43 Q122 43 124 45 L134 55 L82 55 Z" fill="#cfe3f5"/>
    <path d="M51 56 L60 44 L67 44 L58 56 Z" fill="#ffffff" opacity=".45" stroke="none"/>
    <path d="M88 44 L97 44 L88 55 L82 55 L82 50 Z" fill="#ffffff" opacity=".45" stroke="none"/>
    <path d="M79 56 L79 79" stroke-width="3"/>
    <rect x="66" y="61" width="13" height="5" rx="2.5" fill="#b45309" stroke="none"/>
    <path d="M134 54 L125 51 L125 56 Z" fill="#b45309" stroke-width="3"/>
    <rect x="167" y="63" width="15" height="8" rx="3" fill="#fde68a" stroke-width="3"/>
    <rect x="34" y="60" width="11" height="10" rx="3" fill="#fecaca" stroke-width="3"/>
    <circle cx="62" cy="89" r="15" fill="#1e293b"/>
    <circle cx="154" cy="89" r="15" fill="#1e293b"/>
  </g>
  <g fill="#cbd5e1">
    <circle cx="62" cy="89" r="7"/>
    <circle cx="154" cy="89" r="7"/>
  </g>
  <g fill="#64748b">
    <circle cx="62" cy="89" r="2.5"/>
    <circle cx="154" cy="89" r="2.5"/>
  </g>
</svg>
